<?xml version="1.0" standalone="no"?>
 <!DOCTYPE svg PUBLIC "-//W3C//DTD SVG 1.1//EN" 
 "http://www.w3.org/Graphics/SVG/1.1/DTD/svg11.dtd"> 
<svg
  xmlns:svg="http://www.w3.org/2000/svg"
  xmlns="http://www.w3.org/2000/svg"
  xmlns:xlink="http://www.w3.org/1999/xlink"
  version="1.1"
  width="419.9890mm" height="297.0022mm" viewBox="0.0000 0.0000 419.9890 297.0022">
<title>SVG Image created as right-User_Eco2.svg date 2026/04/25 11:22:51 </title>
  <desc>Image generated by PCBNEW </desc>
<g style="fill:#000000; fill-opacity:1.0000;stroke:#000000; stroke-opacity:1.0000;
stroke-linecap:round; stroke-linejoin:round;"
 transform="translate(0 0) scale(1 1)">
</g>
<g style="fill:none; 
stroke:#000000; stroke-width:0.0500; stroke-opacity:1; 
stroke-linecap:round; stroke-linejoin:round;">
<path d="M141.2560 119.0900
L152.5143 125.5900
" />
<path d="M147.5729 107.1487
L141.0729 118.4070
" />
<path d="M153.1973 125.4070
L159.6973 114.1487
" />
<path d="M159.5143 113.4657
L148.2560 106.9657
" />
<path d="M141.0729 118.4070 A0.5000 0.5000 0.0 0 0 141.2560 119.0900" />
<path d="M148.2560 106.9657 A0.5000 0.5000 0.0 0 0 147.5729 107.1487" />
<path d="M152.5147 125.5871 A0.5001 0.5001 0.0 0 0 153.1977 125.4040" />
<path d="M159.6973 114.1487 A0.5000 0.5000 0.0 0 0 159.5143 113.4657" />
<path d="M120.1649 117.2988
L132.7220 120.6635
" />
<path d="M123.1760 104.1294
L119.8114 116.6865
" />
<path d="M133.3343 120.3099
L136.6990 107.7529
" />
<path d="M136.3454 107.1405
L123.7884 103.7759
" />
<path d="M119.8143 116.6861 A0.5001 0.5001 0.0 0 0 120.1679 117.2985" />
<path d="M123.7884 103.7759 A0.5000 0.5000 0.0 0 0 123.1760 104.1294" />
<path d="M132.7220 120.6635 A0.5000 0.5000 0.0 0 0 133.3343 120.3099" />
<path d="M136.6990 107.7529 A0.5000 0.5000 0.0 0 0 136.3454 107.1405" />
<path d="M132.7020 83.1940
L132.7020 96.1940
" />
<path d="M133.2020 96.6940
L146.2020 96.6940
" />
<path d="M146.2020 82.6940
L133.2020 82.6940
" />
<path d="M146.7020 96.1940
L146.7020 83.1940
" />
<path d="M133.2020 82.6940 A0.5000 0.5000 0.0 0 0 132.7020 83.1940" />
<path d="M132.7047 96.1929 A0.5001 0.5001 0.0 0 0 133.2048 96.6929" />
<path d="M146.7020 83.1940 A0.5000 0.5000 0.0 0 0 146.2020 82.6940" />
<path d="M146.2020 96.6940 A0.5000 0.5000 0.0 0 0 146.7020 96.1940" />
<path d="M94.6010 78.4220
L94.6010 91.4220
" />
<path d="M95.1010 91.9220
L108.1010 91.9220
" />
<path d="M108.1010 77.9220
L95.1010 77.9220
" />
<path d="M108.6010 91.4220
L108.6010 78.4220
" />
<path d="M95.1010 77.9220 A0.5000 0.5000 0.0 0 0 94.6010 78.4220" />
<path d="M94.6037 91.4209 A0.5001 0.5001 0.0 0 0 95.1038 91.9209" />
<path d="M108.6010 78.4220 A0.5000 0.5000 0.0 0 0 108.1010 77.9220" />
<path d="M108.1010 91.9220 A0.5000 0.5000 0.0 0 0 108.6010 91.4220" />
<path d="M151.7520 54.6190
L151.7520 67.6190
" />
<path d="M152.2520 68.1190
L165.2520 68.1190
" />
<path d="M165.2520 54.1190
L152.2520 54.1190
" />
<path d="M165.7520 67.6190
L165.7520 54.6190
" />
<path d="M152.2520 54.1190 A0.5000 0.5000 0.0 0 0 151.7520 54.6190" />
<path d="M151.7547 67.6179 A0.5001 0.5001 0.0 0 0 152.2548 68.1179" />
<path d="M165.7520 54.6190 A0.5000 0.5000 0.0 0 0 165.2520 54.1190" />
<path d="M165.2520 68.1190 A0.5000 0.5000 0.0 0 0 165.7520 67.6190" />
<path d="M113.6520 42.7140
L113.6520 55.7140
" />
<path d="M114.1520 56.2140
L127.1520 56.2140
" />
<path d="M127.1520 42.2140
L114.1520 42.2140
" />
<path d="M127.6520 55.7140
L127.6520 42.7140
" />
<path d="M114.1520 42.2140 A0.5000 0.5000 0.0 0 0 113.6520 42.7140" />
<path d="M113.6547 55.7129 A0.5001 0.5001 0.0 0 0 114.1548 56.2129" />
<path d="M127.6520 42.7140 A0.5000 0.5000 0.0 0 0 127.1520 42.2140" />
<path d="M127.1520 56.2140 A0.5000 0.5000 0.0 0 0 127.6520 55.7140" />
<path d="M94.6010 40.3330
L94.6010 53.3330
" />
<path d="M95.1010 53.8330
L108.1010 53.8330
" />
<path d="M108.1010 39.8330
L95.1010 39.8330
" />
<path d="M108.6010 53.3330
L108.6010 40.3330
" />
<path d="M95.1010 39.8330 A0.5000 0.5000 0.0 0 0 94.6010 40.3330" />
<path d="M94.6037 53.3319 A0.5001 0.5001 0.0 0 0 95.1038 53.8319" />
<path d="M108.6010 40.3330 A0.5000 0.5000 0.0 0 0 108.1010 39.8330" />
<path d="M108.1010 53.8330 A0.5000 0.5000 0.0 0 0 108.6010 53.3330" />
<path d="M113.6520 80.8030
L113.6520 93.8030
" />
<path d="M114.1520 94.3030
L127.1520 94.3030
" />
<path d="M127.1520 80.3030
L114.1520 80.3030
" />
<path d="M127.6520 93.8030
L127.6520 80.8030
" />
<path d="M114.1520 80.3030 A0.5000 0.5000 0.0 0 0 113.6520 80.8030" />
<path d="M113.6547 93.8019 A0.5001 0.5001 0.0 0 0 114.1548 94.3019" />
<path d="M127.6520 80.8030 A0.5000 0.5000 0.0 0 0 127.1520 80.3030" />
<path d="M127.1520 94.3030 A0.5000 0.5000 0.0 0 0 127.6520 93.8030" />
<path d="M113.6520 61.7560
L113.6520 74.7560
" />
<path d="M114.1520 75.2560
L127.1520 75.2560
" />
<path d="M127.1520 61.2560
L114.1520 61.2560
" />
<path d="M127.6520 74.7560
L127.6520 61.7560
" />
<path d="M114.1520 61.2560 A0.5000 0.5000 0.0 0 0 113.6520 61.7560" />
<path d="M113.6547 74.7549 A0.5001 0.5001 0.0 0 0 114.1548 75.2549" />
<path d="M127.6520 61.7560 A0.5000 0.5000 0.0 0 0 127.1520 61.2560" />
<path d="M127.1520 75.2560 A0.5000 0.5000 0.0 0 0 127.6520 74.7560" />
<path d="M132.7020 64.1440
L132.7020 77.1440
" />
<path d="M133.2020 77.6440
L146.2020 77.6440
" />
<path d="M146.2020 63.6440
L133.2020 63.6440
" />
<path d="M146.7020 77.1440
L146.7020 64.1440
" />
<path d="M133.2020 63.6440 A0.5000 0.5000 0.0 0 0 132.7020 64.1440" />
<path d="M132.7047 77.1429 A0.5001 0.5001 0.0 0 0 133.2048 77.6429" />
<path d="M146.7020 64.1440 A0.5000 0.5000 0.0 0 0 146.2020 63.6440" />
<path d="M146.2020 77.6440 A0.5000 0.5000 0.0 0 0 146.7020 77.1440" />
<path d="M132.7020 45.0940
L132.7020 58.0940
" />
<path d="M133.2020 58.5940
L146.2020 58.5940
" />
<path d="M146.2020 44.5940
L133.2020 44.5940
" />
<path d="M146.7020 58.0940
L146.7020 45.0940
" />
<path d="M133.2020 44.5940 A0.5000 0.5000 0.0 0 0 132.7020 45.0940" />
<path d="M132.7047 58.0929 A0.5001 0.5001 0.0 0 0 133.2048 58.5929" />
<path d="M146.7020 45.0940 A0.5000 0.5000 0.0 0 0 146.2020 44.5940" />
<path d="M146.2020 58.5940 A0.5000 0.5000 0.0 0 0 146.7020 58.0940" />
<path d="M37.4500 28.4250
L37.4500 41.4250
" />
<path d="M37.9500 41.9250
L50.9500 41.9250
" />
<path d="M50.9500 27.9250
L37.9500 27.9250
" />
<path d="M51.4500 41.4250
L51.4500 28.4250
" />
<path d="M37.9500 27.9250 A0.5000 0.5000 0.0 0 0 37.4500 28.4250" />
<path d="M37.4527 41.4239 A0.5001 0.5001 0.0 0 0 37.9528 41.9239" />
<path d="M51.4500 28.4250 A0.5000 0.5000 0.0 0 0 50.9500 27.9250" />
<path d="M50.9500 41.9250 A0.5000 0.5000 0.0 0 0 51.4500 41.4250" />
<path d="M75.5510 80.8100
L75.5510 93.8100
" />
<path d="M76.0510 94.3100
L89.0510 94.3100
" />
<path d="M89.0510 80.3100
L76.0510 80.3100
" />
<path d="M89.5510 93.8100
L89.5510 80.8100
" />
<path d="M76.0510 80.3100 A0.5000 0.5000 0.0 0 0 75.5510 80.8100" />
<path d="M75.5537 93.8089 A0.5001 0.5001 0.0 0 0 76.0538 94.3089" />
<path d="M89.5510 80.8100 A0.5000 0.5000 0.0 0 0 89.0510 80.3100" />
<path d="M89.0510 94.3100 A0.5000 0.5000 0.0 0 0 89.5510 93.8100" />
<path d="M56.5010 47.4750
L56.5010 60.4750
" />
<path d="M57.0010 60.9750
L70.0010 60.9750
" />
<path d="M70.0010 46.9750
L57.0010 46.9750
" />
<path d="M70.5010 60.4750
L70.5010 47.4750
" />
<path d="M57.0010 46.9750 A0.5000 0.5000 0.0 0 0 56.5010 47.4750" />
<path d="M56.5037 60.4739 A0.5001 0.5001 0.0 0 0 57.0038 60.9739" />
<path d="M70.5010 47.4750 A0.5000 0.5000 0.0 0 0 70.0010 46.9750" />
<path d="M70.0010 60.9750 A0.5000 0.5000 0.0 0 0 70.5010 60.4750" />
<path d="M37.4500 66.5170
L37.4500 79.5170
" />
<path d="M37.9500 80.0170
L50.9500 80.0170
" />
<path d="M50.9500 66.0170
L37.9500 66.0170
" />
<path d="M51.4500 79.5170
L51.4500 66.5170
" />
<path d="M37.9500 66.0170 A0.5000 0.5000 0.0 0 0 37.4500 66.5170" />
<path d="M37.4527 79.5159 A0.5001 0.5001 0.0 0 0 37.9528 80.0159" />
<path d="M51.4500 66.5170 A0.5000 0.5000 0.0 0 0 50.9500 66.0170" />
<path d="M50.9500 80.0170 A0.5000 0.5000 0.0 0 0 51.4500 79.5170" />
<path d="M56.5000 85.5670
L56.5000 98.5670
" />
<path d="M57.0000 99.0670
L70.0000 99.0670
" />
<path d="M70.0000 85.0670
L57.0000 85.0670
" />
<path d="M70.5000 98.5670
L70.5000 85.5670
" />
<path d="M57.0000 85.0670 A0.5000 0.5000 0.0 0 0 56.5000 85.5670" />
<path d="M56.5027 98.5659 A0.5001 0.5001 0.0 0 0 57.0028 99.0659" />
<path d="M70.5000 85.5670 A0.5000 0.5000 0.0 0 0 70.0000 85.0670" />
<path d="M70.0000 99.0670 A0.5000 0.5000 0.0 0 0 70.5000 98.5670" />
<path d="M37.4500 85.5670
L37.4500 98.5670
" />
<path d="M37.9500 99.0670
L50.9500 99.0670
" />
<path d="M50.9500 85.0670
L37.9500 85.0670
" />
<path d="M51.4500 98.5670
L51.4500 85.5670
" />
<path d="M37.9500 85.0670 A0.5000 0.5000 0.0 0 0 37.4500 85.5670" />
<path d="M37.4527 98.5659 A0.5001 0.5001 0.0 0 0 37.9528 99.0659" />
<path d="M51.4500 85.5670 A0.5000 0.5000 0.0 0 0 50.9500 85.0670" />
<path d="M50.9500 99.0670 A0.5000 0.5000 0.0 0 0 51.4500 98.5670" />
<path d="M132.7020 26.0440
L132.7020 39.0440
" />
<path d="M133.2020 39.5440
L146.2020 39.5440
" />
<path d="M146.2020 25.5440
L133.2020 25.5440
" />
<path d="M146.7020 39.0440
L146.7020 26.0440
" />
<path d="M133.2020 25.5440 A0.5000 0.5000 0.0 0 0 132.7020 26.0440" />
<path d="M132.7047 39.0429 A0.5001 0.5001 0.0 0 0 133.2048 39.5429" />
<path d="M146.7020 26.0440 A0.5000 0.5000 0.0 0 0 146.2020 25.5440" />
<path d="M146.2020 39.5440 A0.5000 0.5000 0.0 0 0 146.7020 39.0440" />
<path d="M113.6520 23.6640
L113.6520 36.6640
" />
<path d="M114.1520 37.1640
L127.1520 37.1640
" />
<path d="M127.1520 23.1640
L114.1520 23.1640
" />
<path d="M127.6520 36.6640
L127.6520 23.6640
" />
<path d="M114.1520 23.1640 A0.5000 0.5000 0.0 0 0 113.6520 23.6640" />
<path d="M113.6547 36.6629 A0.5001 0.5001 0.0 0 0 114.1548 37.1629" />
<path d="M127.6520 23.6640 A0.5000 0.5000 0.0 0 0 127.1520 23.1640" />
<path d="M127.1520 37.1640 A0.5000 0.5000 0.0 0 0 127.6520 36.6640" />
<path d="M75.5510 61.7600
L75.5510 74.7600
" />
<path d="M76.0510 75.2600
L89.0510 75.2600
" />
<path d="M89.0510 61.2600
L76.0510 61.2600
" />
<path d="M89.5510 74.7600
L89.5510 61.7600
" />
<path d="M76.0510 61.2600 A0.5000 0.5000 0.0 0 0 75.5510 61.7600" />
<path d="M75.5537 74.7589 A0.5001 0.5001 0.0 0 0 76.0538 75.2589" />
<path d="M89.5510 61.7600 A0.5000 0.5000 0.0 0 0 89.0510 61.2600" />
<path d="M89.0510 75.2600 A0.5000 0.5000 0.0 0 0 89.5510 74.7600" />
<path d="M56.5010 28.4250
L56.5010 41.4250
" />
<path d="M57.0010 41.9250
L70.0010 41.9250
" />
<path d="M70.0010 27.9250
L57.0010 27.9250
" />
<path d="M70.5010 41.4250
L70.5010 28.4250
" />
<path d="M57.0010 27.9250 A0.5000 0.5000 0.0 0 0 56.5010 28.4250" />
<path d="M56.5037 41.4239 A0.5001 0.5001 0.0 0 0 57.0038 41.9239" />
<path d="M70.5010 28.4250 A0.5000 0.5000 0.0 0 0 70.0010 27.9250" />
<path d="M70.0010 41.9250 A0.5000 0.5000 0.0 0 0 70.5010 41.4250" />
<path d="M75.5510 23.6640
L75.5510 36.6640
" />
<path d="M76.0510 37.1640
L89.0510 37.1640
" />
<path d="M89.0510 23.1640
L76.0510 23.1640
" />
<path d="M89.5510 36.6640
L89.5510 23.6640
" />
<path d="M76.0510 23.1640 A0.5000 0.5000 0.0 0 0 75.5510 23.6640" />
<path d="M75.5537 36.6629 A0.5001 0.5001 0.0 0 0 76.0538 37.1629" />
<path d="M89.5510 23.6640 A0.5000 0.5000 0.0 0 0 89.0510 23.1640" />
<path d="M89.0510 37.1640 A0.5000 0.5000 0.0 0 0 89.5510 36.6640" />
<path d="M151.7520 35.5690
L151.7520 48.5690
" />
<path d="M152.2520 49.0690
L165.2520 49.0690
" />
<path d="M165.2520 35.0690
L152.2520 35.0690
" />
<path d="M165.7520 48.5690
L165.7520 35.5690
" />
<path d="M152.2520 35.0690 A0.5000 0.5000 0.0 0 0 151.7520 35.5690" />
<path d="M151.7547 48.5679 A0.5001 0.5001 0.0 0 0 152.2548 49.0679" />
<path d="M165.7520 35.5690 A0.5000 0.5000 0.0 0 0 165.2520 35.0690" />
<path d="M165.2520 49.0690 A0.5000 0.5000 0.0 0 0 165.7520 48.5690" />
<path d="M56.5000 66.5170
L56.5000 79.5170
" />
<path d="M57.0000 80.0170
L70.0000 80.0170
" />
<path d="M70.0000 66.0170
L57.0000 66.0170
" />
<path d="M70.5000 79.5170
L70.5000 66.5170
" />
<path d="M57.0000 66.0170 A0.5000 0.5000 0.0 0 0 56.5000 66.5170" />
<path d="M56.5027 79.5159 A0.5001 0.5001 0.0 0 0 57.0028 80.0159" />
<path d="M70.5000 66.5170 A0.5000 0.5000 0.0 0 0 70.0000 66.0170" />
<path d="M70.0000 80.0170 A0.5000 0.5000 0.0 0 0 70.5000 79.5170" />
<path d="M94.6010 21.2830
L94.6010 34.2830
" />
<path d="M95.1010 34.7830
L108.1010 34.7830
" />
<path d="M108.1010 20.7830
L95.1010 20.7830
" />
<path d="M108.6010 34.2830
L108.6010 21.2830
" />
<path d="M95.1010 20.7830 A0.5000 0.5000 0.0 0 0 94.6010 21.2830" />
<path d="M94.6037 34.2819 A0.5001 0.5001 0.0 0 0 95.1038 34.7819" />
<path d="M108.6010 21.2830 A0.5000 0.5000 0.0 0 0 108.1010 20.7830" />
<path d="M108.1010 34.7830 A0.5000 0.5000 0.0 0 0 108.6010 34.2830" />
<path d="M94.6010 59.3760
L94.6010 72.3760
" />
<path d="M95.1010 72.8760
L108.1010 72.8760
" />
<path d="M108.1010 58.8760
L95.1010 58.8760
" />
<path d="M108.6010 72.3760
L108.6010 59.3760
" />
<path d="M95.1010 58.8760 A0.5000 0.5000 0.0 0 0 94.6010 59.3760" />
<path d="M94.6037 72.3749 A0.5001 0.5001 0.0 0 0 95.1038 72.8749" />
<path d="M108.6010 59.3760 A0.5000 0.5000 0.0 0 0 108.1010 58.8760" />
<path d="M108.1010 72.8760 A0.5000 0.5000 0.0 0 0 108.6010 72.3760" />
<path d="M37.4500 47.4750
L37.4500 60.4750
" />
<path d="M37.9500 60.9750
L50.9500 60.9750
" />
<path d="M50.9500 46.9750
L37.9500 46.9750
" />
<path d="M51.4500 60.4750
L51.4500 47.4750
" />
<path d="M37.9500 46.9750 A0.5000 0.5000 0.0 0 0 37.4500 47.4750" />
<path d="M37.4527 60.4739 A0.5001 0.5001 0.0 0 0 37.9528 60.9739" />
<path d="M51.4500 47.4750 A0.5000 0.5000 0.0 0 0 50.9500 46.9750" />
<path d="M50.9500 60.9750 A0.5000 0.5000 0.0 0 0 51.4500 60.4750" />
<path d="M75.5510 42.7100
L75.5510 55.7100
" />
<path d="M76.0510 56.2100
L89.0510 56.2100
" />
<path d="M89.0510 42.2100
L76.0510 42.2100
" />
<path d="M89.5510 55.7100
L89.5510 42.7100
" />
<path d="M76.0510 42.2100 A0.5000 0.5000 0.0 0 0 75.5510 42.7100" />
<path d="M75.5537 55.7089 A0.5001 0.5001 0.0 0 0 76.0538 56.2089" />
<path d="M89.5510 42.7100 A0.5000 0.5000 0.0 0 0 89.0510 42.2100" />
<path d="M89.0510 56.2100 A0.5000 0.5000 0.0 0 0 89.5510 55.7100" />
<path d="M157.7537 128.6150
L169.0121 135.1150
" />
<path d="M164.0707 116.6737
L157.5707 127.9320
" />
<path d="M169.6951 134.9320
L176.1951 123.6737
" />
<path d="M176.0121 122.9907
L164.7537 116.4907
" />
<path d="M157.5707 127.9320 A0.5000 0.5000 0.0 0 0 157.7537 128.6150" />
<path d="M164.7537 116.4907 A0.5000 0.5000 0.0 0 0 164.0707 116.6737" />
<path d="M169.0125 135.1121 A0.5001 0.5001 0.0 0 0 169.6955 134.9290" />
<path d="M176.1951 123.6737 A0.5000 0.5000 0.0 0 0 176.0121 122.9907" />
<path d="M151.7530 73.6600
L151.7530 86.6600
" />
<path d="M152.2530 87.1600
L165.2530 87.1600
" />
<path d="M165.2530 73.1600
L152.2530 73.1600
" />
<path d="M165.7530 86.6600
L165.7530 73.6600
" />
<path d="M152.2530 73.1600 A0.5000 0.5000 0.0 0 0 151.7530 73.6600" />
<path d="M151.7557 86.6589 A0.5001 0.5001 0.0 0 0 152.2557 87.1589" />
<path d="M165.7530 73.6600 A0.5000 0.5000 0.0 0 0 165.2530 73.1600" />
<path d="M165.2530 87.1600 A0.5000 0.5000 0.0 0 0 165.7530 86.6600" />
<path style="fill:none; 
stroke:#000000; stroke-width:0.1000; stroke-opacity:1; 
stroke-linecap:round; stroke-linejoin:round;fill:none"
d="M 167.4970,18.1090
167.8140,18.2400
168.0860,18.4490
168.2950,18.7210
168.4260,19.0380
168.4780,19.4310
168.4780,107.8410
168.5410,108.4340
168.7300,109.0690
169.0220,109.6780
169.4030,110.2350
169.8590,110.7160
170.3410,111.0670
181.3590,117.4270
181.6730,117.6680
181.8820,117.9400
182.0130,118.2570
182.0580,118.5970
182.0130,118.9370
181.8610,119.3030
168.7470,142.0110
168.5060,142.3250
168.2350,142.5380
167.9180,142.6690
167.5780,142.7140
167.2380,142.6690
166.8720,142.5170
136.3040,124.8710
135.8880,124.6470
135.3960,124.4110
134.8660,124.1810
134.3280,123.9690
133.8130,123.7880
133.3610,123.6520
117.7400,119.4680
117.3900,119.3420
117.0200,119.1470
116.6400,118.8870
116.2910,118.5880
116.0070,118.2810
115.7940,117.9760
107.5170,103.6480
107.1660,103.1660
106.6850,102.7100
106.1280,102.3290
105.5190,102.0370
104.8840,101.8480
104.2910,101.7850
36.0980,101.7850
35.7050,101.7330
35.3880,101.6020
35.1160,101.3930
34.9070,101.1210
34.7760,100.8040
34.7240,100.4110
34.7240,19.4310
34.7760,19.0380
34.9070,18.7210
35.1160,18.4490
35.3880,18.2400
35.7050,18.1090
36.0980,18.0580
167.1040,18.0580
Z" /> 
<path style="fill:none; 
stroke:#000000; stroke-width:0.1000; stroke-opacity:1; 
stroke-linecap:round; stroke-linejoin:round;fill:none"
d="M 48.8640,20.6060
49.6740,21.0190
50.3160,21.6610
50.7290,22.4710
50.8710,23.3690
50.7290,24.2670
50.3160,25.0770
49.6740,25.7190
48.8640,26.1320
47.9660,26.2740
47.0680,26.1320
46.2590,25.7190
45.6160,25.0770
45.2030,24.2670
45.0610,23.3690
45.2030,22.4710
45.6160,21.6610
46.2590,21.0190
47.0680,20.6060
47.9660,20.4640
Z" /> 
<path style="fill:none; 
stroke:#000000; stroke-width:0.1000; stroke-opacity:1; 
stroke-linecap:round; stroke-linejoin:round;fill:none"
d="M 151.0420,26.1510
151.8520,26.5640
152.4950,27.2070
152.9070,28.0160
153.0500,28.9140
152.9070,29.8120
152.4950,30.6220
151.8520,31.2640
151.0420,31.6770
150.1450,31.8190
149.2470,31.6770
148.4370,31.2640
147.7940,30.6220
147.3820,29.8120
147.2400,28.9140
147.3820,28.0160
147.7940,27.2070
148.4370,26.5640
149.2470,26.1510
150.1450,26.0090
Z" /> 
<path style="fill:none; 
stroke:#000000; stroke-width:0.1000; stroke-opacity:1; 
stroke-linecap:round; stroke-linejoin:round;fill:none"
d="M 54.8160,79.8520
55.6260,80.2640
56.2680,80.9070
56.6810,81.7170
56.8230,82.6140
56.6810,83.5120
56.2680,84.3220
55.6260,84.9650
54.8160,85.3770
53.9180,85.5190
53.0200,85.3770
52.2110,84.9650
51.5680,84.3220
51.1550,83.5120
51.0130,82.6140
51.1550,81.7170
51.5680,80.9070
52.2110,80.2640
53.0200,79.8520
53.9180,79.7090
Z" /> 
<path style="fill:none; 
stroke:#000000; stroke-width:0.1000; stroke-opacity:1; 
stroke-linecap:round; stroke-linejoin:round;fill:none"
d="M 142.5750,100.7050
143.3850,101.1180
144.0270,101.7600
144.4400,102.5700
144.5820,103.4680
144.4400,104.3660
144.0270,105.1760
143.3850,105.8180
142.5750,106.2310
141.6770,106.3730
140.7790,106.2310
139.9700,105.8180
139.3270,105.1760
138.9140,104.3660
138.7720,103.4680
138.9140,102.5700
139.3270,101.7600
139.9700,101.1180
140.7790,100.7050
141.6770,100.5630
Z" /> 
</g> 
</svg>
